# xmcd CD database file generated by OrangeCD 5.2
#
# Track frame offsets:
#	150
#	16405
#	43628
#
# Disc length: 840 seconds
#
# Revision: 0
# Processed by: cddbd v1.5.2PL0 Copyright (c) Steve Scherf et al.
# Submitted via: OrangeCD 5.2
#
DISCID=1b034603
DTITLE=West End Girls - Suburbia [CD Maxi)
DYEAR=2006
DGENRE=Pop
TTITLE0=Suburbia [Original Version]
TTITLE1=Suburbia [Punkstar 80's Remix]
TTITLE2=Suburbia [Extended Version]
EXTD=
EXTT0=
EXTT1=
EXTT2=
PLAYORDER=
